<svg width="1024" height="616" viewBox="0 0 1024 616" fill="none" xmlns="http://www.w3.org/2000/svg">
<path d="M395.422 396.074L483.805 396.04C480.647 409.908 478.863 425.244 475.634 439.394C467.775 472.562 450.468 502.733 425.802 526.252C384.795 566.079 330.935 584.637 274.741 588.223C262.312 589.021 250.503 588.748 238.042 588.534C226.443 587.873 215.146 586.55 203.625 585.143C208.093 562.396 212.308 539.603 216.269 516.772C220.417 518.153 224.73 519.184 228.974 520.235C306.428 539.344 411.958 523.029 433.213 432.152C419.013 432.589 403.119 432.297 388.789 432.298L395.422 396.074Z" fill="url(#paint0_linear_32_62)"/>
<path d="M717.392 362.673C728.701 362.521 740.016 362.577 751.325 362.843C751.428 372.172 752.583 384.66 753.238 394.166C754.269 410.018 755.429 425.862 756.726 441.696L796.839 362.902C808.309 362.727 819.78 362.695 831.258 362.803C834.143 388.64 836.957 415.845 840.401 441.495L877.835 362.865C892.742 362.662 907.657 362.603 922.571 362.689C914.588 378.332 906.496 393.916 898.287 409.441C883.087 439.887 865.93 471.466 850.056 501.683L811.396 501.722C808.232 475.59 805.32 449.419 802.661 423.229C793.959 442.364 782.865 461.369 773.709 480.375C770.48 487.08 766.342 495.451 762.523 501.748L722.988 501.728C719.525 456.675 710.908 407.5 708.249 362.665L717.392 362.673Z" fill="url(#paint1_linear_32_62)"/>
<path fill-rule="evenodd" clip-rule="evenodd" d="M629.788 359.365C668.318 358.666 698.574 377.295 701.861 418.268C705.713 466.304 675.944 500.749 627.895 504.387C607.929 504.679 590.051 501.831 574.463 488.402C545.258 463.243 548.124 411.869 572.765 384.637C588.541 367.198 607.028 360.866 629.788 359.365ZM652.833 449.633C664.395 424.842 658.682 394.77 625.54 396.851C616.267 398.902 609.66 402.967 604.524 411.274C595.096 426.516 594.143 453.27 611.832 463.022C618.368 466.634 624.438 466.511 631.519 466.129C640.545 463.516 648.787 458.296 652.833 449.633Z" fill="url(#paint2_linear_32_62)"/>
<path d="M506 102.185C521.088 101.936 536.782 102.136 551.918 102.121C548.643 123.319 543.622 147.046 539.767 168.4C543.215 164.88 546.399 162.041 550.463 159.251C564.15 149.885 581.034 146.432 597.299 149.671C640.834 157.939 626.923 204.364 621.416 234.449C617.987 253.182 614.859 272.22 610.913 290.837C595.814 291.044 580.501 290.934 565.382 290.947C567.459 275.735 571.423 256.826 574.253 241.51C576.283 230.415 583.422 204.395 576.882 195.11C565.254 178.604 538.387 189.802 533.201 207.285C530.166 217.514 528.764 227.679 526.868 238.274C523.798 255.821 520.633 273.348 517.375 290.856L471.366 290.915C476.169 270.119 480.337 243.222 484.21 221.794L506 102.185Z" fill="url(#paint3_linear_32_62)"/>
<path d="M149.698 105.401L291.82 105.477C290.217 117.791 286.685 132.982 284.588 145.75L191.222 145.702C189.4 157.436 186.801 169.923 184.574 181.647C212.786 180.957 242.094 181.943 270.507 181.542L263.152 221.474L177.658 221.389C175.647 229.371 174.078 239.448 172.56 247.722L164.557 290.934L115.43 290.908C118.075 272.135 123.156 248.513 126.723 229.507L149.698 105.401Z" fill="url(#paint4_linear_32_62)"/>
<path d="M398.561 312.035L399.819 311.977C432.468 310.523 457.615 320.375 481.406 342.225C470.473 353.9 459.469 365.505 448.387 377.041C447.46 375.807 446.481 374.614 445.45 373.467C434.952 361.811 419.72 355.241 404.118 354.664C388.945 353.997 374.141 359.435 363.014 369.763C335.929 395.266 333.024 456.921 378.816 463.658C382.597 464.209 386.241 464.294 390.054 464.378C397.271 464.32 401.693 463.587 408.846 462.368C398.056 480.31 375.075 497.688 353.158 501.054C344.572 502.37 328.338 492.261 321.536 486.496C282.22 453.173 288.267 383.087 320.823 347.243C342.095 323.812 368.234 314.001 398.561 312.035Z" fill="url(#paint5_linear_32_62)"/>
<path d="M409.317 148.548C430.631 145.964 458.25 154.164 474.614 168.082C468.076 175.646 459.253 188.2 453.083 196.419C443.863 188.914 431.783 183.482 419.93 181.759C412.363 180.682 400.236 180.378 399.756 190.769C400.143 197.201 412.708 199.806 417.238 201.176C437.046 207.16 463.087 212.857 465.811 237.716C467.39 252.131 463.253 266.319 452.791 276.661C439.028 290.272 421.104 293.475 402.439 293.547C378.324 293.586 355.732 285.24 338.111 268.692C345.685 260.891 354.706 249.842 362.086 241.393C373.161 251.917 390.356 258.979 405.625 259.75C412.362 260.094 423.216 257.377 423.029 248.934C416.916 233.333 357.598 236.296 356.682 201.833C355.74 166.369 376.425 151.242 409.317 148.548Z" fill="url(#paint6_linear_32_62)"/>
<path d="M515.403 312.963L561.397 312.991C557.072 331.406 553.194 357.658 549.706 377.021L527.179 501.709L480.835 501.786L515.403 312.963Z" fill="url(#paint7_linear_32_62)"/>
<path d="M306.58 151.834C319.892 151.609 333.704 151.733 347.052 151.696C339.979 185.152 334.821 220.234 328.123 253.811C327.221 258.33 322.451 286.894 321.35 289.637C319.407 291.31 320.066 290.791 316.916 290.972C303.276 290.784 289.288 290.914 275.619 290.908C280.076 263.07 286.201 233.08 291.274 205.224L297.404 171.784C298.455 166.14 299.762 157.895 301.374 152.672C303.241 151.563 304.168 151.898 306.58 151.834Z" fill="url(#paint8_linear_32_62)"/>
<path d="M401.847 26.6325C413.177 25.8596 424.557 26.2337 435.813 27.7491C423.063 37.0828 410.89 47.1783 399.359 57.9812C389.414 67.2902 379.571 77.4914 369.372 86.4256C356.342 97.9367 342.319 108.271 327.466 117.307C320.083 121.767 312.795 125.683 305.208 129.785C318.07 72.3072 336.968 31.8816 401.847 26.6325Z" fill="url(#paint9_linear_32_62)"/>
<defs>
<linearGradient id="paint0_linear_32_62" x1="329.828" y1="58.1484" x2="611.223" y2="532.157" gradientUnits="userSpaceOnUse">
<stop stop-color="#EA580B"/>
<stop offset="1" stop-color="#FF8240"/>
</linearGradient>
<linearGradient id="paint1_linear_32_62" x1="329.828" y1="58.1484" x2="611.223" y2="532.157" gradientUnits="userSpaceOnUse">
<stop stop-color="#EA580B"/>
<stop offset="1" stop-color="#FF8240"/>
</linearGradient>
<linearGradient id="paint2_linear_32_62" x1="329.828" y1="58.1484" x2="611.223" y2="532.157" gradientUnits="userSpaceOnUse">
<stop stop-color="#EA580B"/>
<stop offset="1" stop-color="#FF8240"/>
</linearGradient>
<linearGradient id="paint3_linear_32_62" x1="329.828" y1="58.1484" x2="611.223" y2="532.157" gradientUnits="userSpaceOnUse">
<stop stop-color="#EA580B"/>
<stop offset="1" stop-color="#FF8240"/>
</linearGradient>
<linearGradient id="paint4_linear_32_62" x1="329.828" y1="58.1484" x2="611.223" y2="532.157" gradientUnits="userSpaceOnUse">
<stop stop-color="#EA580B"/>
<stop offset="1" stop-color="#FF8240"/>
</linearGradient>
<linearGradient id="paint5_linear_32_62" x1="329.828" y1="58.1484" x2="611.223" y2="532.157" gradientUnits="userSpaceOnUse">
<stop stop-color="#EA580B"/>
<stop offset="1" stop-color="#FF8240"/>
</linearGradient>
<linearGradient id="paint6_linear_32_62" x1="329.828" y1="58.1484" x2="611.223" y2="532.157" gradientUnits="userSpaceOnUse">
<stop stop-color="#EA580B"/>
<stop offset="1" stop-color="#FF8240"/>
</linearGradient>
<linearGradient id="paint7_linear_32_62" x1="329.828" y1="58.1484" x2="611.223" y2="532.157" gradientUnits="userSpaceOnUse">
<stop stop-color="#EA580B"/>
<stop offset="1" stop-color="#FF8240"/>
</linearGradient>
<linearGradient id="paint8_linear_32_62" x1="329.828" y1="58.1484" x2="611.223" y2="532.157" gradientUnits="userSpaceOnUse">
<stop stop-color="#EA580B"/>
<stop offset="1" stop-color="#FF8240"/>
</linearGradient>
<linearGradient id="paint9_linear_32_62" x1="329.828" y1="58.1484" x2="611.223" y2="532.157" gradientUnits="userSpaceOnUse">
<stop stop-color="#EA580B"/>
<stop offset="1" stop-color="#FF8240"/>
</linearGradient>
</defs>
</svg>
