<svg width="1254" height="844" viewBox="0 0 1254 844" fill="none" xmlns="http://www.w3.org/2000/svg">
<path d="M433.566 130.001C436.73 123.693 439.785 116.705 442.849 110.452C472.804 49.3389 530.35 26.2299 595.664 35.4548C625.61 39.6846 652.374 45.2272 647.592 84.4509C646.3 95.0615 639.265 100.968 632.339 108.271C613.523 127.252 595.119 146.665 575.102 164.403C568.407 170.336 561.736 176.794 554.484 182.033C580.659 179.325 619.101 179.612 641.665 194.56C643.698 181.826 650.617 144.907 657.799 135.704C662.495 129.73 669.304 125.786 676.823 124.686C687.484 123.205 748.922 123.086 758.884 124.902C764.738 125.968 768.902 127.825 773.592 131.427C782.783 138.494 785.734 146.533 787.271 157.727C787.081 160.415 787.148 163.822 786.91 166.225L788.263 165.864C788.091 162.399 790.945 156.792 792.414 153.568C808.389 134.301 840.327 147.416 862.419 124.273C871.818 114.427 877.292 100.469 881.988 87.8877C884.78 80.4072 887.07 71.9611 892.655 65.9942C896.977 61.3676 903.376 59.009 909.597 58.5106C916.363 57.9681 924.494 60.1442 929.644 64.6342C935.008 69.3159 936.802 76.1927 937.102 83.0591C937.69 96.4128 929.515 124.043 940.09 133.811C948.001 141.119 963.645 140.742 973.742 143.034C977.722 143.937 981.365 145.441 985.162 146.905C997.726 142.563 1011.44 141.803 1024.7 141.224C1056.8 139.823 1089.66 142.424 1119.13 156.202C1136.06 164.118 1152.54 179.369 1157.98 197.728C1174.4 253.063 1131.81 302.751 1095.1 338.839C1089.25 344.598 1082.74 349.827 1076.77 355.52L1076.65 356.32C1075.62 363.71 1075.92 371.174 1075.04 378.593C1072.54 401.473 1061.85 422.675 1044.92 438.275C1062.03 434.215 1084.66 436.462 1102.47 436.071C1109.11 435.924 1124.15 435.789 1130.02 436.75C1134.28 437.491 1138.37 439.034 1142.05 441.3C1157.4 450.57 1165.09 471.768 1158.91 488.894C1154.98 499.799 1147.22 512.952 1141.82 523.44L1111.41 583.244C1102.01 601.558 1092.74 619.94 1083.62 638.394C1078.84 648.038 1071.33 664.368 1065.91 672.849C1065.41 673.639 1064.9 674.416 1064.38 675.182C1090.99 678.549 1087.04 698.994 1083.88 719.145C1082.24 729.53 1081.7 744.066 1072.46 750.777C1063.63 757.2 1050.87 754.549 1040.6 755.179C1040.05 787.123 1015.91 779.653 993.048 780.29C984.641 780.523 978.194 777.798 973.087 771.228C967.331 779.065 958.392 780.914 949.164 780.565C935.516 780.045 917.698 783.511 908.55 771.111C901.411 781.925 887.683 780.547 876.459 780.571C849.297 780.627 840.003 778.71 840.217 749.73C818.113 749.895 806.056 748.689 806.889 721.692C807.318 707.787 803.779 688.034 817.966 679.596L815.657 679.113C813.839 680.319 809.142 682.058 806.895 682.866C780.633 692.302 742.126 693.881 715.552 684.678C712.527 684.17 708.608 683.834 706.275 682.242C705.951 682.199 705.626 682.15 705.302 682.107C705.577 683.907 705.228 683.393 706.208 684.672C709.116 685.53 715.656 687.281 717.982 688.732C733.057 694.42 736.327 709.324 732.145 723.86C726.83 742.333 701.175 735.745 690.3 748.187C682.322 757.316 680.399 771.62 668.551 777.198C661.932 780.265 650.415 779.077 644.126 776.414C629.327 770.156 633.344 755.883 629.7 744.513C627.19 739.927 616.775 737.453 612.072 736.198C596.828 732.132 595.788 714.81 599.793 702.258C602.185 694.757 609.51 690.269 616.879 687.164C607.556 686.638 590.292 686.705 581.077 687.317C575.602 693.545 570.189 699.827 564.395 705.73C483.466 788.146 360.538 813.256 249.711 791.697C241.074 790.019 233.316 783.829 228.973 776.334C219.607 760.176 226.046 741.647 230.497 725.054L239.144 693.79C237.756 694.212 236.348 694.555 234.925 694.83C227.703 696.184 215.492 695.988 209.637 691.444C194.984 680.074 202.762 659.58 199.668 643.244L199.486 642.307C192.082 638.621 184.156 637.996 176.282 635.712C171.29 634.267 165.742 630.832 161.068 629.081C142.522 622.119 126.967 615.61 114.422 599.489C103.26 585.136 99.1909 565.004 102.365 547.051C110.778 499.469 150.97 460.33 187.564 433.076C168.612 420.103 167.748 403.574 173.125 382.801C184.205 340.001 192.612 296.071 203.77 253.347C191.776 257.661 179.052 255.627 166.718 255.992C134.683 256.937 132.891 246.502 132.95 218.539C123.81 218.588 108.838 219.77 102.026 212.9C92.357 202.171 95.4583 182.978 95.3426 169.588C95.097 141.151 113.162 140.045 135.113 141.667C133.725 103.006 143.535 104.294 177.012 103.861C213.347 103.39 213.403 111.835 213.068 145.569C212.934 158.995 215.427 165.999 205.403 177.107C211.919 179.025 214.511 183.479 216.631 189.515L217.391 192.297L217.917 192.343L218.754 189.007C221.829 175.718 225.942 148.708 235.008 139.788C239.957 134.925 246.255 131.664 253.082 130.43C259.514 129.305 268.425 129.61 275.09 129.631C285.265 129.696 295.442 129.71 305.618 129.671C347.25 129.482 392.07 129.047 433.566 130.001ZM325.243 354.827C322.754 367.999 313.341 409.659 308.205 419.991C305.873 424.686 302.796 428.633 298.405 431.588C292.237 435.734 285.217 436.622 278.029 437.479C275.595 454.397 258.192 458.524 245.739 467.665C220.604 486.108 195.923 506.773 180.188 534.168C162.956 563.418 186.117 568.512 209.735 574.409C225.831 557.233 222.199 537.756 238.276 526.63C246.799 523.097 255.917 522.43 264.524 526.03C283.434 534.345 276.737 557.729 278.058 573.821C278.161 575.07 279.409 577.96 280.598 578.07C294.007 579.307 312.702 575.205 325.962 574.219C318.948 531.039 333.215 484.485 358.525 449.4C364.129 441.63 369.727 435.691 375.993 428.548C367.745 419.426 364.175 411.257 364.991 398.732C365.901 384.754 370.477 368.271 373.87 354.507C360.095 354.522 344.786 354.137 331.165 354.484L325.243 354.827ZM979.039 195.03L977.979 195.339C972.015 197.045 964.674 197.86 958.434 198.779C935.761 202.116 922.602 207.735 911.036 228.228C907.662 234.225 904.821 240.506 902.537 246.999C894.853 268.365 896.322 278.16 871.028 282.116C869.809 296.663 867.158 306.64 864.054 320.741C859.725 340.52 855.084 360.231 850.136 379.866C847.038 392.481 844.595 405.76 840.29 417.97C835.502 431.558 825.332 434.687 812.326 437.026C819.386 439.34 826.495 441.496 833.163 444.79C844.772 436.915 849.842 435.936 863.729 435.838C876.294 435.746 888.803 436.217 901.343 436.328C885.987 420.604 877.898 405.844 873.459 383.869C868.652 354.811 875.565 325.033 892.685 301.065C908.146 280.02 931.334 265.974 957.149 262.013C986.741 257.439 1029.35 266.379 1047.78 291.895C1098.49 234.534 1126.56 205.82 1020.61 201.649C1012.59 201.333 1004.41 202.28 996.434 201.422C990.28 200.907 981.01 194.898 979.039 195.03Z" fill="#FEFEFE"/>
<path d="M717.983 688.732C712.699 688.291 700.734 686.393 699.351 680.129C701.414 676.584 712.699 682.989 715.552 684.679C712.527 684.17 708.609 683.834 706.276 682.242C705.951 682.199 705.627 682.15 705.302 682.107C705.578 683.907 705.229 683.393 706.208 684.672C709.117 685.53 715.656 687.281 717.983 688.732Z" fill="#D1CECF"/>
<path d="M786.91 166.225L788.263 165.864C788.447 171.668 788.753 176.093 790.21 181.711L783.04 181.631C784.595 176.266 785.697 171.687 786.91 166.225Z" fill="#D1CECF"/>
<path d="M565.008 53.1918C576.59 52.528 588.615 54.057 600.268 55.7506C613.786 57.6518 633.068 62.0096 629.339 80.1062C628.041 86.424 620.803 92.1135 616.432 96.5944C591.488 122.143 566.495 147.623 538.597 170.015C523.835 181.86 508.405 192.848 492.382 202.924C510.131 202.777 509.823 201.972 521.494 215.35C556.034 193.018 606.608 196.532 641.726 215.488C646.049 217.821 650.163 220.331 654.29 222.983C658.87 207.024 661.54 188.486 665.606 172.58C670.229 155.164 667.498 142.266 690.569 142.975C705.191 142.846 717.095 143.055 731.992 142.967C745.72 142.886 766.085 140.628 768.84 159.751C769.636 165.289 765.448 177.33 764.224 183.146C762.901 189.424 761.082 196.404 759.595 202.813C821.076 187.898 863.38 233.388 850.718 293.971C843.725 326.342 835.318 358.416 828.093 390.747C825.644 401.705 824.45 417.651 810.183 417.841C788.079 418.134 766.428 417.711 744.232 417.991C734.019 418.119 727.957 410.687 726.089 400.836C725.642 395.074 729.475 382.214 730.969 375.909L743.056 324.125C744.905 316.186 748.892 300.711 749.485 293.155L749.547 292.28C745.144 294.631 740.405 297.679 738.231 302.338C732.825 313.902 730.369 327.544 727.387 339.922L713.133 399.849C715.331 402.592 720.015 408.251 719.568 411.666C716.935 431.564 710.304 452.192 706.863 471.988C749.363 446.4 803.227 442.94 842.954 475.729C842.917 475.154 842.893 474.578 842.868 474.002C842.25 458.046 850.087 455.523 864.66 455.744C883.145 456.019 902.911 454.911 921.372 456.313C924.041 456.515 928.67 460.691 930.587 462.448C937.671 468.926 936.379 479.568 936.318 488.337C940.555 479.77 945.821 467.732 951.399 460.244C953.726 457.121 960.878 455.67 965.219 455.762C981.402 456.123 999.734 454.641 1015.64 456.668C1018.81 457.74 1021.94 460.305 1024.37 462.558C1031.83 469.496 1030.57 485.012 1030.92 494.46C1036.36 484.497 1039.89 473.237 1045.39 463.152C1049.78 455.113 1058.65 455.737 1066.92 455.744C1085.75 455.75 1103.81 455.597 1122.77 455.897C1135.37 456.099 1145.81 469.618 1141.03 481.864C1135.08 494.466 1128.49 507.042 1122.17 519.509L1084.88 593.212L1060.52 641.774C1055.44 651.877 1051.67 666.431 1038.71 667.656C1027.36 668.734 1012.86 666.921 1002.24 667.797C958.312 671.416 962.892 656.886 960.118 621.592C952.636 635.1 945.692 650.91 936.93 663.462C932.338 670.044 902.464 667.46 894.149 667.907C854.961 670.013 854.863 663.376 853.014 627.219C845.819 635.853 837.541 643.525 828.375 650.034C787.271 679.045 721.289 681.2 685.065 642.643C679.964 637.212 676.027 631.702 671.772 625.646C670.927 629.718 669.935 634.463 669.035 638.308C663.708 661.092 665.263 668.991 638.995 667.852C621.544 667.093 600.779 668.826 583.003 667.356C580.287 667.129 577.252 664.674 575.13 663.088C561.082 682.762 545.129 698.222 526.501 713.377C497.161 736.448 463.787 753.862 428.079 764.731C379.943 779.457 330.194 782.831 280.425 776.818C272.204 775.33 260.552 776.046 253.17 771.84C245.272 767.345 241.929 758.914 244.047 750.36C250.608 723.884 257.706 697.616 264.236 671.146C265.76 664.968 270.511 657.859 277.481 658.404C288.487 658.741 299.195 662.739 310.181 663.915C342.437 668.85 373.775 667.846 405.565 660.413C383.78 649.348 370.566 635.608 358.618 614.416C339.221 617.343 319.749 619.743 300.223 621.629C292.898 622.395 281.564 621.598 275.716 622.578C257.59 625.615 247.203 638.265 241.244 654.853C238.826 660.235 235.534 674.361 229.789 676.773C218.38 681.568 218.911 663.174 219.738 658.337C221.142 650.144 219.909 637.837 215.73 631.414C209.316 621.562 190.948 619.449 180.351 617.6C179.08 616.32 177.855 614.728 176.704 613.32C158.101 607.767 140.13 601.068 128.539 584.358C121.124 573.667 119.127 559.18 121.994 546.646C133.054 498.293 184.46 458.499 223.081 432.635C228.917 432.47 256.141 431.643 259.332 434.392C256.828 438.146 241.507 448.047 236.123 451.751C202.642 474.786 108.754 555.243 181.151 586.666C190.647 590.787 202.615 593.132 213.101 594.988C233.038 585.124 236.26 568.255 243.879 549.175C247.577 540.909 258.442 538.717 259.415 550.179C260.45 562.376 255.468 585.522 266.858 593.831C270.027 596.121 273.72 597.584 277.599 598.086C290.121 599.739 334.474 592.281 348.365 590.016C342.518 569.43 341.623 547.761 345.752 526.765C355.083 477.799 380.97 445.457 421.484 418.093C413.569 417.669 405.359 418.587 397.524 417.64C393.092 416.966 389.775 413.45 387.324 410.051C380.208 400.182 387.136 381.87 389.757 370.464C392.43 358.754 395.02 347.026 397.527 335.279L310.734 335.286C306.847 350.617 303.079 365.977 299.428 381.366C297.369 389.901 295.544 398.619 292.886 406.992C289.823 416.637 282.244 418.2 273.209 418.042C251.495 417.663 231.054 417.934 209.186 418.125C198.788 418.216 189.538 411.342 189.26 399.647C190.811 388.979 194.599 375.428 197.103 364.833L214.157 292.438L235.143 203.179C238.573 188.553 241.797 173.806 245.629 159.29C247.585 151.881 254.273 149.559 261.172 149.391C270.922 149.153 280.659 149.287 290.409 149.296L347.837 149.331L404.332 149.307C418.815 149.301 431.446 148.974 445.906 150.226C447.993 147.173 450.569 138.849 452.362 134.81C459.68 118.323 467.999 102.907 480.3 89.5406C504.066 63.7191 530.987 54.9479 565.008 53.1918Z" fill="black"/>
<path d="M857.024 470.659C876.177 470.39 895.802 470.592 914.991 470.574C914.875 493.315 916.271 516.27 916.179 539.035C916.155 546.083 916.259 553.394 916.883 560.393C931.866 530.518 946.225 500.466 961.428 470.647L1009.16 470.616C1009.26 479.77 1010.56 492.708 1011.24 502.046C1012.61 522.362 1014.27 542.654 1016.21 562.921C1029.82 532.086 1043.62 501.33 1057.58 470.653C1078.42 470.365 1099.82 470.616 1120.7 470.61C1111.11 488.943 1101.59 508.971 1092.32 527.616L1053.3 604.711C1046.68 617.894 1039.3 632.069 1033.24 645.417L976.222 645.442C976.038 635.149 974.532 621.782 973.644 611.391L968.727 554.649L939.367 610.663C933.783 621.452 927.262 635.192 921.396 645.454C904.362 644.952 886.017 645.405 868.781 645.264L857.024 470.659Z" fill="#FE6F27"/>
<path d="M492.152 511.543L602.496 511.641C599.566 526.465 596.042 541.999 592.806 556.786C589.795 569.038 587.736 582.258 583.856 594.229C554.96 683.411 464.711 739.075 375.678 752.895C352.486 756.502 331.93 757.206 308.645 756.869C291.813 755.871 274.997 754.928 258.357 751.946C265.488 725.733 271.591 698.578 278.434 672.212L283.985 673.547C346.497 688.468 412.193 683.772 468.766 650.297C492.529 636.233 515.618 612.506 526.407 586.93C529.281 580.115 531.596 569.4 533.364 561.948C516.681 561.44 497.876 561.844 481.026 561.832C484.441 545.122 488.464 528.247 492.152 511.543Z" fill="#FE6F27"/>
<path d="M683.191 157.874C704.444 157.843 726.059 157.664 747.287 157.938C740.779 185.092 734.417 212.284 728.214 239.512C733.278 234.149 738.415 229.308 744.648 225.313C760.158 215.416 778.95 212.057 796.927 215.97C809.222 218.769 820.25 225.816 826.005 237.26C839.439 263.973 827.303 298.319 820.782 325.719L804.409 395.671C783.309 395.434 762.209 395.362 741.109 395.453C745.426 377.395 749.651 359.313 753.772 341.209C756.925 326.424 768.669 291.141 761.67 278.5C759.546 274.654 756.141 272.116 751.886 271.043C745.444 269.416 737.484 270.977 731.9 274.448C726.365 277.89 721.718 283.211 718.809 289.029C712.184 302.282 709.784 319 706.385 333.415L691.721 395.678C672.611 394.818 649.876 395.608 630.398 395.466L662.238 252.622C668.876 223.193 678.048 187.255 683.191 157.874Z" fill="#FE6F27"/>
<path d="M259.052 164.216L436.095 164.286C431.665 183.911 427.253 204.321 422.359 223.779L314.224 223.781L306.318 258.538C337.941 257.762 372.336 258.467 404.188 258.459C399.99 273.282 395.887 294.868 392.327 310.543L391.866 312.169C390.196 313.078 304.728 312.683 293.67 312.7L273.492 395.597C250.859 395.388 227.297 395.957 204.831 395.402C222.009 318.379 241.402 241.243 259.052 164.216Z" fill="#FE6F27"/>
<path d="M764.757 467.089C785.747 464.022 813.362 470.604 829.704 484.356C846.279 498.317 855.041 517.231 856.97 538.606C859.468 565.364 851.208 592.018 834.021 612.671C816.656 633.238 791.913 646.152 765.112 648.638C637.042 660.29 641.335 479.709 764.757 467.089Z" fill="#FE6F27"/>
<path d="M766.104 519.717C814.372 517.47 804.14 588.149 762.05 595.925C716.268 600.089 721.656 525.4 766.104 519.717Z" fill="black"/>
<path d="M774.021 541.76C790.951 542.801 783.102 559.731 778.142 569.271C774.67 575.969 767.482 580.188 760.226 581.866C757.066 582.043 751.99 581.59 751.115 577.959C747.276 562.058 757.611 543.915 774.021 541.76Z" fill="#FEFEFE"/>
<path d="M509.071 407.747C512.505 407.748 515.938 407.801 519.37 407.904C553.996 409.16 586.281 421.913 610.165 447.441C606.038 451.746 599.498 457.458 594.973 461.671C584.147 471.609 573.488 481.724 563.001 492.017C545.657 472.564 524.034 463.808 497.907 467.378C476.317 470.519 456.884 482.171 443.944 499.738C425.44 524.646 418.327 566.253 447.005 587.12C462.409 598.331 482.061 599.513 500.354 596.5C502.011 596.121 503.269 595.882 504.951 595.606L505.228 596.164C493.001 619.107 465.334 637.341 442.385 648.295C422.299 647.236 399.989 637.733 385.675 623.748C338.219 577.384 355.916 497.754 398.568 454.636C428.371 424.508 467.266 408.797 509.071 407.747Z" fill="#FE6F27"/>
<path d="M568.826 214.822C600.513 212.555 626.89 220.325 651.915 239.586C644.188 251.115 632.401 265.454 623.78 277.683C609.423 267.206 596.527 260.391 578.312 258.643C566.671 257.526 555.023 266.921 567.814 275.847C570.723 277.878 578.866 280.554 582.308 281.69C607.811 290.11 638.101 300.818 637.593 332.932C637.458 367.364 612.636 391.28 579.768 397.297C570.969 398.908 564.149 399.007 555.305 398.971C525.329 399.053 498.003 387.181 475.89 367.373C486.744 355.4 497.221 341.74 507.761 329.296C522.566 341.617 538.716 350.798 558.345 352.772C564.614 353.403 579.181 352.151 578.571 342.44C578.088 334.763 563.705 330.306 557.327 327.932C543.83 322.909 529.07 318.303 517.55 309.145C495.171 291.811 499.755 258.905 515.975 239.073C528.837 223.345 549.26 216.625 568.826 214.822Z" fill="#FE6F27"/>
<path d="M636.963 409.729C655.583 410.456 678.655 409.772 697.716 409.834C681.594 488.281 661.792 567.036 645.149 645.447C625.17 645.019 604.146 645.392 584.062 645.282C590.209 621.574 595.726 593.738 601.193 569.491L636.963 409.729Z" fill="#FE6F27"/>
<path d="M438.781 217.83C459.706 217.983 480.632 217.974 501.557 217.803C492.762 260.173 481.924 302.808 472.808 345.16C469.217 361.838 464.725 379.007 461.619 395.704C442.055 394.639 419.104 395.805 398.944 395.364C407.185 357.403 415.632 319.488 424.285 281.62C428.826 261.538 433.541 237.3 438.781 217.83Z" fill="#FE6F27"/>
<path d="M561.616 67.878C578.141 67.022 591.131 68.8155 607.048 71.8096C565.113 116.068 529.471 152.078 477.121 183.905C467.804 189.615 456.77 195.615 447.073 200.664C454.432 167.488 466.284 127.559 488.679 101.643C508.572 78.6234 531.928 70.0548 561.616 67.878Z" fill="#FE6F27"/>
<path d="M226.277 440.442L237.486 440.559C203.963 463.998 163.318 497.766 149.246 537.407C135.849 575.137 167.126 591.743 197.4 600.444C193.477 600.799 189.179 601.681 185.262 602.385C182.039 603.009 180.29 603.689 177.731 605.648C150.953 597.615 121.314 581.419 129.538 548.22C140.776 502.848 189.237 465.143 226.277 440.442Z" fill="#D7FB48"/>
<path d="M247.971 567.82C248.583 568.573 249.321 583.434 249.984 586.336C253.677 602.532 267.384 607.234 281.609 610.241C254.096 614.11 241.847 626.259 231.215 650.69L231.066 650.769L230.51 650.292C231.047 624.06 221.234 617.025 198.039 610.198C226.868 604.969 236.993 594.119 247.971 567.82Z" fill="#26D1FC"/>
<path d="M505.589 489.671C521.121 488.814 527.873 489.444 541.67 496.762C530.381 496.823 519.092 496.804 507.804 496.713C489.953 496.651 478.86 495.176 476.585 516.925C475.194 530.242 463.81 559.762 466.882 571.444C469.647 575.786 471.225 578.694 474.761 582.423C438.078 577.843 444.691 540.682 459.947 518.217C470.633 502.48 486.945 492.91 505.589 489.671Z" fill="#FEFEFE"/>
<path d="M348.395 598.104C349.927 597.81 349.394 597.792 350.852 598.171C352.753 600.602 353.812 604.025 354.956 606.97C342.524 609.426 319.698 611.562 306.812 612.72C305.08 612.952 304.425 613.167 302.714 612.836C302.372 610.65 301.351 606.94 301.977 605.139C317.398 602.941 332.945 600.572 348.395 598.104Z" fill="#D7FB48"/>
<path d="M604.386 485.789L604.718 486.157C604.893 488.067 603.09 494.582 602.529 496.86L594.276 496.811C594.109 496.664 594.229 496.841 593.856 495.923C596.879 492.316 600.848 488.961 604.386 485.789Z" fill="#FEFEFE"/>
<path d="M1027.9 160.964C1035.48 160.754 1043.07 160.789 1050.65 161.068C1153.34 164.894 1168.47 227.368 1105.77 298.882C1089.56 317.367 1074.45 331.202 1056.21 347.629C1058.66 361.986 1057.54 376.723 1052.97 390.55C1045.87 411.56 1030.67 428.859 1010.74 438.599C991.046 448.359 968.268 449.841 947.468 442.726C924.996 434.833 908.654 419.175 898.447 397.896C891.252 382.24 889.244 364.693 892.722 347.817C896.886 325.728 909.793 306.256 928.511 293.811C947.199 281.584 969.989 277.315 991.829 281.95C1016.03 286.931 1032.36 300.044 1045.81 320.276C1065.24 303.379 1084.18 282.998 1098.47 261.51C1106.52 249.408 1115.91 232.731 1112.51 217.584C1102.62 173.527 1000.16 185.797 994.377 180.337C992.974 179.008 992.105 176.24 991.891 174.382C991.523 171.242 992.399 167.757 994.56 165.392C998.718 160.843 1021.59 161.299 1027.9 160.964Z" fill="black"/>
<path d="M1033.32 168.933C1060.71 167.907 1107.37 173.123 1125.17 194.204C1163.56 239.645 1083.78 312.804 1053.98 339.15C1052.86 335.211 1051.14 331.438 1049.54 327.66L1053.82 323.898C1058.31 319.673 1062.73 315.381 1067.09 311.023C1159.47 218.036 1128 172.04 1004.37 174.367C1002.17 174.408 1000.73 174.969 999.214 173.502L999.514 172.172C1002.94 169.52 1027.64 169.162 1033.32 168.933Z" fill="#D7FB48"/>
<path d="M940.353 330.235C950.505 330.309 960.657 330.311 970.803 330.241C970.877 337.789 971.348 352.235 970.534 359.317C969.407 360.556 969.481 360.134 967.178 360.248C956.585 360.508 945.625 360.369 935.008 360.366C935.075 349.772 936.918 340.202 940.353 330.235Z" fill="#26D1FC"/>
<path d="M978.078 330.273C988.138 330.341 998.192 330.345 1008.25 330.288C1012.49 339.855 1013.13 349.995 1013.48 360.276C1001.67 360.373 989.858 360.407 978.047 360.379L978.078 330.273Z" fill="#26D1FC"/>
<path d="M935.173 367.857L970.87 367.8C970.956 377.813 970.876 387.827 970.638 397.838L940.561 398.092C937.145 386.076 935.265 380.487 935.173 367.857Z" fill="#26D1FC"/>
<path d="M978.108 367.765L1013.46 367.831C1012.99 378.823 1011.99 385.141 1008.87 395.653L1008.31 397.057C1005.83 398.792 982.811 397.96 978.047 397.912L978.108 367.765Z" fill="#26D1FC"/>
<path d="M1020.67 367.711C1029.14 367.629 1037.62 367.679 1046.1 367.86C1044.55 380.868 1043.51 384.741 1038.33 396.849C1036.57 399.124 1018.99 397.904 1015.37 397.799C1018.5 388.057 1020.28 377.934 1020.67 367.711Z" fill="#26D1FC"/>
<path d="M910.773 330.194C917.753 330.412 925.566 330.251 932.614 330.247C930.771 337.243 929.461 343.123 928.818 350.332C928.622 352.538 928.267 358.72 927.25 360.216L924.93 360.33C917.355 360.264 909.659 360.369 902.072 360.409C903.554 348.216 905.232 341.106 910.773 330.194Z" fill="#26D1FC"/>
<path d="M902.636 367.773L927.93 367.792C928.353 378.613 930.392 387.514 932.804 397.994L911.208 398.075C905.544 387.761 903.346 379.415 902.636 367.773Z" fill="#26D1FC"/>
<path d="M1016.21 330.316C1023.5 330.377 1030.95 330.264 1038.25 330.23C1043.31 339.796 1045.44 349.66 1046.14 360.358L1020.53 360.445C1020.23 348.469 1019.43 341.789 1016.21 330.316Z" fill="#26D1FC"/>
<path d="M970.142 292.974C971.361 294.791 970.84 319.419 970.828 323.526L943.917 323.561L943.342 322.631C946.832 310.688 958.894 298.239 970.142 292.974Z" fill="#26D1FC"/>
<path d="M978.102 292.639C992.565 299.281 999.429 308.757 1005.58 323.308C999.759 323.993 984.642 323.581 978.084 323.544C978.023 313.241 978.029 302.94 978.102 292.639Z" fill="#26D1FC"/>
<path d="M978.084 404.957C987.121 404.871 996.159 404.883 1005.19 404.995C1001.66 412.759 999.526 415.866 994.316 422.706C988.578 429.058 985.701 431.018 978.151 434.76C978.053 424.824 978.028 414.891 978.084 404.957Z" fill="#26D1FC"/>
<path d="M943.604 404.955L970.791 404.959C970.87 414.813 970.84 424.666 970.699 434.521C956.438 428.667 950.009 418.324 943.604 404.955Z" fill="#26D1FC"/>
<path d="M953.291 294.923L953.475 294.989C953.665 296.106 950.916 298.241 949.728 299.488C943.195 306.322 939.147 315.259 934.775 323.551L915.751 323.555L915.408 322.915C920.294 310.84 941.419 298.995 953.291 294.923Z" fill="#26D1FC"/>
<path d="M994.206 294.625C1009.62 297.274 1024.69 311.048 1033.83 323.185C1030.17 323.837 1017.9 323.621 1013.65 323.632C1008.71 311.18 1003.7 303.886 994.206 294.625Z" fill="#26D1FC"/>
<path d="M915.61 404.965L935.786 404.904C941.143 417.472 944.946 422.82 954.596 432.58C939.404 429.153 924.379 417.711 915.61 404.965Z" fill="#26D1FC"/>
<path d="M1012.9 404.875L1033.11 405.001C1025.63 415.178 1019.93 420.156 1009.02 426.709C1003.4 429.56 999.882 430.853 993.875 433.009C1003.7 423.664 1007.58 417.431 1012.9 404.875Z" fill="#26D1FC"/>
<path d="M908.801 78.0433C909.885 77.9092 910.944 77.7745 912.034 77.8271C914.079 77.9245 915.646 78.4749 917.012 80.0933C920.9 84.6911 917.012 99.4666 916.461 105.11C909.726 173.696 966.854 153.659 974.667 165.193C975.775 166.831 976.081 168.87 975.714 170.788C975.193 173.535 973.558 175.964 970.962 177.129C967.699 178.596 962.684 178.214 959.12 178.695C943.623 180.786 927.409 184.77 914.581 194.09C899.714 204.897 890.567 223.187 884.627 240.15C882.564 246.059 881.008 253.071 878.002 258.539C877.065 260.243 875.522 261.208 873.924 262.232C870.74 262.518 866.858 262.712 865.027 259.711C862.082 254.893 864.825 242.925 865.505 237.777C870.042 203.708 859.523 182.149 823.109 179.074C816.765 178.538 805.34 177.804 806.926 168.915C807.281 166.902 809.669 162.98 811.714 162.715C830.94 160.216 850.816 158.03 867.183 146.386C882.619 135.634 891.491 115.892 898.269 98.7587C900.933 92.0271 902.69 82.2682 908.801 78.0433Z" fill="black"/>
<path d="M907.301 101.135C907.466 102.351 907.074 110.42 906.977 112.192C906.327 124.512 906.995 139.038 914.508 149.517C924.495 163.447 940.586 167.035 956.334 169.854C908.703 175.537 892.073 195.597 875.192 238.05C875.382 221.635 877.145 203.319 866.938 189.255C857.312 175.993 839.911 172.086 824.726 169.752C874.512 164.426 889.091 144.765 907.301 101.135Z" fill="#D7FB48"/>
<path d="M1051.79 694.304C1054.46 694.249 1068.04 693.153 1067.72 697.114C1067.25 703.213 1063.7 730.718 1061.19 734.502C1059.02 737.802 1029.59 735.426 1023.64 735.653C1019.88 738.372 1024.47 755.939 1020.77 760.457C1016.11 762.098 994.677 761.253 988.394 761.174C988.137 751.187 988.645 740.343 988.995 730.35C978.794 730.467 968.599 730.485 958.404 730.393C958.269 740.6 958 750.801 957.596 760.996C950.009 761.615 931.787 761.376 924.151 761.021C923.98 750.82 924.384 740.6 924.696 730.405L894.044 730.393C893.836 739.541 893.885 752.234 892.942 761.057C884.205 761.547 868.095 761.449 859.351 761.039C859.247 751.603 859.878 740.061 860.049 730.418C853.645 730.522 847.234 730.546 840.829 730.503C835.949 730.595 831.063 730.608 826.183 730.546C826.079 724.956 826.232 701.113 827.836 697.053C831.259 695.229 855.867 696.067 861.709 696.22C861.764 705.938 860.9 718.429 860.496 728.354L892.146 728.311C892.201 717.627 892.379 706.942 892.685 696.263C902.855 695.878 916.987 695.853 927.048 696.233C927.139 705.987 926.294 718.337 926.056 728.354L956.842 728.348L957.277 696.257C966.7 695.816 982.388 695.829 991.725 696.276L990.807 728.348L1021.28 728.318C1022.19 723.039 1024.66 699.564 1027.29 696.808C1031.31 692.608 1045.93 694.298 1051.79 694.304Z" fill="black"/>
<path d="M1032.77 701.609L1060.35 701.511C1059.38 709.471 1057.23 720.756 1055.56 728.636C1046.55 728.82 1037.53 728.85 1028.51 728.728C1029.52 720.247 1031.4 710.169 1032.77 701.609Z" fill="#26D1FC"/>
<path d="M671.178 667.711C682.573 666.505 681.079 674.997 681.409 682.957C682.297 704.339 699.821 701.492 713.335 708.87C716.317 710.891 714.933 717.797 711.902 718.477C695.768 722.108 682.885 723.737 672.727 738.401C668.49 744.518 664.95 756.219 659.623 759.997C642.797 761.718 655.65 739.393 644.861 729.284C634.586 719.653 629.259 722.818 618.017 716.726C615.084 715.14 616.248 709.103 619.217 707.541C629.4 705.165 636.925 703.231 646.312 699.165C660.481 693.036 663.169 674.14 671.178 667.711Z" fill="black"/>
<path d="M672.225 682.155C672.948 684.445 673.309 688.021 673.952 690.55C677.577 704.811 685.23 708.699 698.279 712.893C678.109 716.787 668.747 726.247 659.299 743.808C658.901 742.688 658.632 741.09 658.454 739.926C655.938 723.535 648.615 717.044 633.252 713.028C634.734 712.648 636.216 712.256 637.691 711.846C655.895 706.745 663.334 698.057 672.225 682.155Z" fill="#D7FB48"/>
<path d="M155.577 123.555C165.61 123.26 184.629 123.032 194.271 123.737L193.686 161.903L154.745 161.933C154.533 168.547 154.792 194.707 153.687 199.193C148.283 199.216 118.802 200.127 115.739 198.117C113.95 193.329 114.841 167.646 115.117 161.207C127.602 160.621 141.771 160.939 154.381 160.951C154.38 155.378 153.619 126.103 155.577 123.555Z" fill="black"/>
<path d="M158.253 193.882C158.814 193.86 159.376 193.844 159.938 193.834C168.618 193.681 177.399 193.562 186.081 193.618C193.419 193.669 200.854 192.348 198.902 202.813C197.444 210.638 198.25 232.076 192.997 236.775C188.527 236.968 156.554 238.015 153.861 235.807C150.203 232.809 154.806 205.564 154.873 200.275C154.913 197.119 155.781 195.726 158.253 193.882Z" fill="black"/>
<path d="M161.956 200.928C171.971 201.023 181.986 201.067 192.002 201.059L189.172 229.698C179.285 229.454 169.339 229.741 159.308 229.464C159.984 219.963 161.393 210.624 161.956 200.928Z" fill="#D7FB48"/>
<path d="M787.271 157.726C788.123 154.813 787.014 154.468 789.084 152.88C790.884 152.892 790.817 152.797 792.415 153.567C790.945 156.792 788.092 162.399 788.263 165.864L786.91 166.224C787.149 163.822 787.082 160.415 787.271 157.726Z" fill="#E3DFDD" fill-opacity="0.01"/>
<path d="M216.631 189.515C216.7 187.625 216.605 187.21 217.228 185.402C218.505 186.365 218.252 187 218.754 189.006L217.917 192.343L217.391 192.297L216.631 189.515Z" fill="#D1CECF" fill-opacity="0.0313725"/>
</svg>
